{
	"asset":{
		"generator":"Khronos glTF Blender I/O v4.2.57",
		"version":"2.0"
	},
	"scene":0,
	"scenes":[
		{
			"name":"Scene",
			"nodes":[
				0
			]
		}
	],
	"nodes":[
		{
			"mesh":0,
			"name":"mushroom"
		}
	],
	"materials":[
		{
			"doubleSided":true,
			"name":"Material",
			"normalTexture":{
				"index":0
			},
			"pbrMetallicRoughness":{
				"baseColorTexture":{
					"index":1
				},
				"metallicFactor":0,
				"roughnessFactor":0.5
			}
		}
	],
	"meshes":[
		{
			"name":"Model",
			"primitives":[
				{
					"attributes":{
						"POSITION":0,
						"NORMAL":1,
						"TEXCOORD_0":2,
						"TANGENT":3
					},
					"indices":4,
					"material":0
				}
			]
		}
	],
	"textures":[
		{
			"sampler":0,
			"source":0
		},
		{
			"sampler":0,
			"source":1
		}
	],
	"images":[
		{
			"mimeType":"image/png",
			"name":"Material NormalPBR",
			"uri":"Material%20Normal.png"
		},
		{
			"mimeType":"image/png",
			"name":"mushroom Base Color",
			"uri":"mushroom%20Base%20Color.png"
		}
	],
	"accessors":[
		{
			"bufferView":0,
			"componentType":5126,
			"count":7901,
			"max":[
				0.5861697793006897,
				1.0459566116333008,
				0.5937926769256592
			],
			"min":[
				-0.6062656044960022,
				-0.008761913515627384,
				-0.574494481086731
			],
			"type":"VEC3"
		},
		{
			"bufferView":1,
			"componentType":5126,
			"count":7901,
			"type":"VEC3"
		},
		{
			"bufferView":2,
			"componentType":5126,
			"count":7901,
			"type":"VEC2"
		},
		{
			"bufferView":3,
			"componentType":5126,
			"count":7901,
			"type":"VEC4"
		},
		{
			"bufferView":4,
			"componentType":5123,
			"count":33696,
			"type":"SCALAR"
		}
	],
	"bufferViews":[
		{
			"buffer":0,
			"byteLength":94812,
			"byteOffset":0,
			"target":34962
		},
		{
			"buffer":0,
			"byteLength":94812,
			"byteOffset":94812,
			"target":34962
		},
		{
			"buffer":0,
			"byteLength":63208,
			"byteOffset":189624,
			"target":34962
		},
		{
			"buffer":0,
			"byteLength":126416,
			"byteOffset":252832,
			"target":34962
		},
		{
			"buffer":0,
			"byteLength":67392,
			"byteOffset":379248,
			"target":34963
		}
	],
	"samplers":[
		{
			"magFilter":9729,
			"minFilter":9987
		}
	],
	"buffers":[
		{
			"byteLength":446640,
			"uri":"Mushroom.bin"
		}
	]
}
